<?xml version="1.0" encoding="UTF-8"?>
<svg width="1024" height="1024" viewBox="0 0 1024 1024" fill="none" xmlns="http://www.w3.org/2000/svg">
  <defs>
    <linearGradient id="bg" x1="0" y1="0" x2="1" y2="1">
      <stop offset="0%" stop-color="#0B0D10"/>
      <stop offset="100%" stop-color="#10161C"/>
    </linearGradient>
    <linearGradient id="gold" x1="0" y1="0" x2="1" y2="1">
      <stop offset="0%" stop-color="#D4AF37"/>
      <stop offset="50%" stop-color="#F6E27A"/>
      <stop offset="100%" stop-color="#B58C2B"/>
    </linearGradient>
    <radialGradient id="glow" cx="50%" cy="30%" r="70%">
      <stop offset="0%" stop-color="#FFFFFF" stop-opacity="0.16"/>
      <stop offset="60%" stop-color="#FFFFFF" stop-opacity="0.0"/>
    </radialGradient>
  </defs>

  <rect x="40" y="40" width="944" height="944" rx="200" fill="url(#bg)"/>
  <rect x="48" y="48" width="928" height="928" rx="192" fill="none" stroke="#FFFFFF" stroke-opacity="0.06" stroke-width="4"/>

  <path d="M 360 300 L 360 724" stroke="url(#gold)" stroke-width="120" stroke-linecap="round" />
  <path d="M 360 300 A 232 232 0 0 1 360 724" stroke="url(#gold)" stroke-width="120" stroke-linecap="round" fill="none"/>

  <rect x="40" y="40" width="944" height="944" rx="200" fill="url(#glow)"/>

  <g transform="translate(512, 720)">
    <g fill="url(#gold)" opacity="0.92">
      <rect x="-96" y="-96" width="56" height="56" rx="10"/>
      <rect x="-28" y="-96" width="56" height="56" rx="10" opacity="0.88"/>
      <rect x="40"  y="-96" width="56" height="56" rx="10" opacity="0.84"/>
      <rect x="-96" y="-28" width="56" height="56" rx="10" opacity="0.88"/>
      <rect x="-28" y="-28" width="56" height="56" rx="10" opacity="0.84"/>
      <rect x="40"  y="-28" width="56" height="56" rx="10" opacity="0.80"/>
      <rect x="-96" y="40" width="56" height="56" rx="10" opacity="0.84"/>
      <rect x="-28" y="40" width="56" height="56" rx="10" opacity="0.80"/>
      <rect x="40"  y="40" width="56" height="56" rx="10" opacity="0.76"/>
    </g>
  </g>
</svg>
